<svg width="17" height="14" viewBox="0 0 17 14" fill="none" xmlns="http://www.w3.org/2000/svg">
<path d="M6.59304 11.6186L10.4577 0.41151C10.6361 -0.104792 11.3137 -0.135259 11.5497 0.320107L11.5889 0.410687L15.9888 13.1741C16.0401 13.3217 16.0351 13.4839 15.9745 13.6278C15.914 13.7717 15.8026 13.8865 15.6628 13.9489C15.5231 14.0114 15.3656 14.0168 15.2221 13.964C15.0787 13.9113 14.9601 13.8043 14.8904 13.6649L14.8584 13.5875L13.5792 9.88117H8.46419L7.20022 13.5472C7.17908 13.6253 7.14319 13.6984 7.0946 13.7623C7.046 13.8261 6.98567 13.8795 6.91703 13.9194L6.84263 13.9556C6.70777 14.0104 6.55819 14.013 6.42157 13.9631C6.28495 13.9131 6.17052 13.8139 6.09945 13.6839L6.06425 13.6081L5.26828 11.5281H1.97797L1.18199 13.6032C1.12886 13.7422 1.02858 13.8567 0.899731 13.9254C0.770879 13.9941 0.622189 14.0125 0.48121 13.977L0.402812 13.9515C0.268053 13.8965 0.157191 13.7931 0.0907204 13.6605C0.0242501 13.5279 0.00666724 13.375 0.0412222 13.2301L0.0652215 13.1494L3.06834 5.33079C3.1096 5.223 3.17949 5.12933 3.27002 5.06048C3.36055 4.99163 3.46807 4.95039 3.58029 4.94145C3.69251 4.93252 3.80492 4.95626 3.90465 5.00997C4.00439 5.06367 4.08743 5.14517 4.14431 5.24515L4.18431 5.33161L6.59304 11.6186ZM3.62512 7.23954L2.45316 10.2929H4.79549L3.62512 7.23954ZM11.0233 2.46354L8.89058 8.64599H13.1545L11.0233 2.46354Z" fill="black"/>
</svg>
