<svg xmlns="http://www.w3.org/2000/svg" width="13" height="13" viewBox="0 0 13 13" fill="none">
  <path d="M0 11.05C0 12.155 0.845 13 1.95 13H11.05C12.155 13 13 12.155 13 11.05V5.85H0V11.05ZM11.05 1.3H9.75V0.65C9.75 0.26 9.49 0 9.1 0C8.71 0 8.45 0.26 8.45 0.65V1.3H4.55V0.65C4.55 0.26 4.29 0 3.9 0C3.51 0 3.25 0.26 3.25 0.65V1.3H1.95C0.845 1.3 0 2.145 0 3.25V4.55H13V3.25C13 2.145 12.155 1.3 11.05 1.3Z" fill="black"/>
  <path d="M7.6375 8.03947C5.005 8.65526 4.39075 10.555 3.78235 12.1468L4.33518 12.35L4.61305 11.6418C4.75345 11.6942 4.8997 11.7342 5.005 11.7342C8.2225 11.7342 9.1 6.5 9.1 6.5C8.8075 7.11579 6.76 7.19276 5.2975 7.50066C3.835 7.80855 3.25 9.11711 3.25 9.73289C3.25 10.3487 3.76188 10.8875 3.76188 10.8875C4.7125 8.03947 7.6375 8.03947 7.6375 8.03947Z" fill="#F2F2F2"/>
</svg>