<svg width="13" height="13" viewBox="0 0 13 13" fill="none" xmlns="http://www.w3.org/2000/svg">
<path d="M11.375 1.3H9.425V0.325C9.425 0.238805 9.39076 0.15614 9.32981 0.0951904C9.26886 0.034241 9.1862 0 9.1 0C9.0138 0 8.93114 0.034241 8.87019 0.0951904C8.80924 0.15614 8.775 0.238805 8.775 0.325V1.3H4.225V0.325C4.225 0.238805 4.19076 0.15614 4.12981 0.0951904C4.06886 0.034241 3.9862 0 3.9 0C3.8138 0 3.73114 0.034241 3.67019 0.0951904C3.60924 0.15614 3.575 0.238805 3.575 0.325V1.3H1.625C1.19418 1.30052 0.781156 1.47189 0.476521 1.77652C0.171887 2.08116 0.000516054 2.49418 0 2.925V11.375C0.000516054 11.8058 0.171887 12.2188 0.476521 12.5235C0.781156 12.8281 1.19418 12.9995 1.625 13H11.375C11.806 13 12.2193 12.8288 12.524 12.524C12.8288 12.2193 13 11.806 13 11.375V2.925C13 2.49402 12.8288 2.0807 12.524 1.77595C12.2193 1.4712 11.806 1.3 11.375 1.3ZM12.35 11.375C12.35 11.6336 12.2473 11.8816 12.0644 12.0644C11.8816 12.2473 11.6336 12.35 11.375 12.35H1.625C1.36641 12.35 1.11842 12.2473 0.935571 12.0644C0.752723 11.8816 0.65 11.6336 0.65 11.375V5.85H12.35V11.375ZM12.35 5.2H0.65V2.925C0.65 2.3868 1.0855 1.95 1.625 1.95H3.575V2.925C3.575 3.0112 3.60924 3.09386 3.67019 3.15481C3.73114 3.21576 3.8138 3.25 3.9 3.25C3.9862 3.25 4.06886 3.21576 4.12981 3.15481C4.19076 3.09386 4.225 3.0112 4.225 2.925V1.95H8.775V2.925C8.775 3.0112 8.80924 3.09386 8.87019 3.15481C8.93114 3.21576 9.0138 3.25 9.1 3.25C9.1862 3.25 9.26886 3.21576 9.32981 3.15481C9.39076 3.09386 9.425 3.0112 9.425 2.925V1.95H11.375C11.6336 1.95 11.8816 2.05272 12.0644 2.23557C12.2473 2.41842 12.35 2.66641 12.35 2.925V5.2Z" fill="white"/>
</svg>
