<svg xmlns="http://www.w3.org/2000/svg" width="39" height="39" viewBox="0 0 39 39" fill="none">
<path fill-rule="evenodd" clip-rule="evenodd" d="M19.8047 9.75C14.2518 9.75 9.75 14.2518 9.75 19.8047C9.75 25.3576 14.2518 29.8594 19.8047 29.8594C25.3576 29.8594 29.8594 25.3576 29.8594 19.8047C29.8594 14.2518 25.3576 9.75 19.8047 9.75ZM23.1931 17.7087C23.3596 17.5363 23.4518 17.3055 23.4497 17.0658C23.4476 16.8261 23.3515 16.5969 23.182 16.4274C23.0125 16.2579 22.7832 16.1618 22.5436 16.1597C22.3039 16.1576 22.073 16.2498 21.9006 16.4163L19.8047 18.5122L17.7087 16.4163C17.6244 16.329 17.5236 16.2593 17.412 16.2114C17.3005 16.1635 17.1806 16.1383 17.0592 16.1372C16.9378 16.1362 16.8175 16.1593 16.7051 16.2053C16.5928 16.2512 16.4908 16.3191 16.4049 16.4049C16.3191 16.4908 16.2512 16.5928 16.2053 16.7051C16.1593 16.8175 16.1362 16.9378 16.1372 17.0592C16.1383 17.1806 16.1635 17.3005 16.2114 17.412C16.2593 17.5236 16.329 17.6244 16.4163 17.7087L18.5122 19.8047L16.4163 21.9006C16.329 21.985 16.2593 22.0858 16.2114 22.1973C16.1635 22.3089 16.1383 22.4288 16.1372 22.5502C16.1362 22.6715 16.1593 22.7919 16.2053 22.9042C16.2512 23.0166 16.3191 23.1186 16.4049 23.2044C16.4908 23.2903 16.5928 23.3581 16.7051 23.4041C16.8175 23.4501 16.9378 23.4732 17.0592 23.4721C17.1806 23.4711 17.3005 23.4459 17.412 23.398C17.5236 23.3501 17.6244 23.2804 17.7087 23.1931L19.8047 21.0972L21.9006 23.1931C22.073 23.3596 22.3039 23.4518 22.5436 23.4497C22.7832 23.4476 23.0125 23.3515 23.182 23.182C23.3515 23.0125 23.4476 22.7832 23.4497 22.5436C23.4518 22.3039 23.3596 22.073 23.1931 21.9006L21.0972 19.8047L23.1931 17.7087Z" fill="#686868"/>
</svg>