<svg width="15" height="15" viewBox="0 0 15 15" fill="none" xmlns="http://www.w3.org/2000/svg">
<path fill-rule="evenodd" clip-rule="evenodd" d="M7.5 0C3.35795 0 0 3.35795 0 7.5C0 11.642 3.35795 15 7.5 15C11.642 15 15 11.642 15 7.5C15 3.35795 11.642 0 7.5 0ZM10.0275 5.93659C10.1517 5.808 10.2204 5.63577 10.2189 5.457C10.2173 5.27823 10.1456 5.10722 10.0192 4.98081C9.89278 4.85439 9.72177 4.78269 9.543 4.78113C9.36423 4.77958 9.192 4.8483 9.06341 4.9725L7.5 6.53591L5.93659 4.9725C5.87369 4.90738 5.79846 4.85544 5.71528 4.8197C5.63209 4.78397 5.54262 4.76516 5.45209 4.76437C5.36156 4.76359 5.27178 4.78084 5.18799 4.81512C5.10419 4.8494 5.02807 4.90003 4.96405 4.96405C4.90003 5.02807 4.8494 5.10419 4.81512 5.18799C4.78084 5.27178 4.76359 5.36156 4.76437 5.45209C4.76516 5.54262 4.78397 5.63209 4.8197 5.71528C4.85544 5.79846 4.90738 5.87369 4.9725 5.93659L6.53591 7.5L4.9725 9.06341C4.90738 9.1263 4.85544 9.20154 4.8197 9.28472C4.78397 9.36791 4.76516 9.45738 4.76437 9.54791C4.76359 9.63844 4.78084 9.72822 4.81512 9.81201C4.8494 9.89581 4.90003 9.97193 4.96405 10.036C5.02807 10.1 5.10419 10.1506 5.18799 10.1849C5.27178 10.2192 5.36156 10.2364 5.45209 10.2356C5.54262 10.2348 5.63209 10.216 5.71528 10.1803C5.79846 10.1446 5.87369 10.0926 5.93659 10.0275L7.5 8.46409L9.06341 10.0275C9.192 10.1517 9.36423 10.2204 9.543 10.2189C9.72177 10.2173 9.89278 10.1456 10.0192 10.0192C10.1456 9.89278 10.2173 9.72177 10.2189 9.543C10.2204 9.36423 10.1517 9.192 10.0275 9.06341L8.46409 7.5L10.0275 5.93659Z" fill="#DAE0DE"/>
</svg>
