<svg xmlns="http://www.w3.org/2000/svg" width="32" height="32" viewBox="0 0 32 32" fill="none">
<path fill-rule="evenodd" clip-rule="evenodd" d="M16.25 8C11.6937 8 8 11.6938 8 16.25C8 20.8062 11.6937 24.5 16.25 24.5C20.8063 24.5 24.5 20.8062 24.5 16.25C24.5 11.6938 20.8063 8 16.25 8ZM19.0303 14.5302C19.1669 14.3888 19.2425 14.1993 19.2408 14.0027C19.239 13.8061 19.1602 13.6179 19.0211 13.4789C18.8821 13.3398 18.6939 13.261 18.4973 13.2592C18.3007 13.2575 18.1112 13.3331 17.9698 13.4698L16.25 15.1895L14.5303 13.4698C14.4611 13.3981 14.3783 13.341 14.2868 13.3017C14.1953 13.2624 14.0969 13.2417 13.9973 13.2408C13.8977 13.2399 13.799 13.2589 13.7068 13.2966C13.6146 13.3343 13.5309 13.39 13.4605 13.4605C13.39 13.5309 13.3343 13.6146 13.2966 13.7068C13.2589 13.799 13.2399 13.8977 13.2408 13.9973C13.2417 14.0969 13.2624 14.1953 13.3017 14.2868C13.341 14.3783 13.3981 14.4611 13.4698 14.5302L15.1895 16.25L13.4698 17.9698C13.3981 18.0389 13.341 18.1217 13.3017 18.2132C13.2624 18.3047 13.2417 18.4031 13.2408 18.5027C13.2399 18.6023 13.2589 18.701 13.2966 18.7932C13.3343 18.8854 13.39 18.9691 13.4605 19.0395C13.5309 19.11 13.6146 19.1657 13.7068 19.2034C13.799 19.2411 13.8977 19.2601 13.9973 19.2592C14.0969 19.2583 14.1953 19.2376 14.2868 19.1983C14.3783 19.159 14.4611 19.1019 14.5303 19.0302L16.25 17.3105L17.9698 19.0302C18.1112 19.1669 18.3007 19.2425 18.4973 19.2408C18.6939 19.239 18.8821 19.1602 19.0211 19.0211C19.1602 18.8821 19.239 18.6939 19.2408 18.4973C19.2425 18.3007 19.1669 18.1112 19.0303 17.9698L17.3105 16.25L19.0303 14.5302Z" fill="#D9D9D9"/>
</svg>