<svg xmlns="http://www.w3.org/2000/svg" width="33" height="33" viewBox="0 0 33 33" fill="none">
  <rect width="33" height="33" rx="8" fill="#51BEA6"/>
  <path d="M8.73535 15.8465C8.73535 12.4945 8.73535 10.818 9.77713 9.77713C10.8189 8.73624 12.4945 8.73535 15.8465 8.73535H17.6242C20.9762 8.73535 22.6527 8.73535 23.6936 9.77713C24.7345 10.8189 24.7354 12.4945 24.7354 15.8465V17.6242C24.7354 20.9762 24.7354 22.6527 23.6936 23.6936C22.6518 24.7345 20.9762 24.7354 17.6242 24.7354H15.8465C12.4945 24.7354 10.818 24.7354 9.77713 23.6936C8.73624 22.6518 8.73535 20.9762 8.73535 17.6242V15.8465Z" stroke="#FEFEFE" stroke-width="1.5"/>
  <path d="M20.7367 14.0688C21.473 14.0688 22.07 13.4718 22.07 12.7354C22.07 11.9991 21.473 11.4021 20.7367 11.4021C20.0003 11.4021 19.4033 11.9991 19.4033 12.7354C19.4033 13.4718 20.0003 14.0688 20.7367 14.0688Z" fill="#FEFEFE"/>
  <path d="M16.7361 19.8462C18.4543 19.8462 19.8472 18.4534 19.8472 16.7351C19.8472 15.0169 18.4543 13.624 16.7361 13.624C15.0179 13.624 13.625 15.0169 13.625 16.7351C13.625 18.4534 15.0179 19.8462 16.7361 19.8462Z" stroke="#FEFEFE" stroke-width="1.5"/>
</svg>