<svg width="13" height="12" viewBox="0 0 13 12" fill="none" xmlns="http://www.w3.org/2000/svg">
<path d="M6.22082 11.6054C5.49294 11.6054 4.80763 11.4791 4.16486 11.2266C3.5221 10.974 2.94372 10.627 2.42973 10.1854L0.711185 11.8839C0.637126 11.9613 0.542895 12 0.428491 12C0.314087 12 0.217921 11.9613 0.139994 11.8839C0.0620662 11.8066 0.0233789 11.7104 0.0239316 11.5955C0.0244843 11.4805 0.0631716 11.3866 0.139994 11.3136L1.83782 9.61509C1.39568 9.10168 1.04859 8.52003 0.796573 7.87013C0.544553 7.22023 0.418266 6.53109 0.417714 5.80271C0.417714 4.18292 0.979786 2.811 2.10393 1.68693C3.22918 0.56231 4.60148 0 6.22082 0H12.0239V5.80271C12.0239 7.42249 11.4619 8.79469 10.3377 9.91931C9.21246 11.0434 7.84016 11.6054 6.22082 11.6054ZM6.22082 10.7765C7.60251 10.7765 8.77695 10.2929 9.74413 9.32578C10.7113 8.35866 11.1949 7.18431 11.1949 5.80271V0.828958H6.22082C4.83913 0.828958 3.66469 1.31252 2.69751 2.27964C1.73032 3.24675 1.24673 4.42111 1.24673 5.80271C1.24673 6.41614 1.35091 6.99724 1.55927 7.54601C1.76763 8.09478 2.05944 8.58552 2.43471 9.01824L6.77294 4.6803C6.84645 4.60293 6.9404 4.56424 7.05481 4.56424C7.16921 4.56424 7.26704 4.60459 7.34828 4.68527C7.43671 4.77369 7.48092 4.87068 7.48092 4.97624C7.48092 5.08179 7.43505 5.18044 7.34331 5.27217L3.00424 9.59353C3.43699 9.96878 3.92776 10.2597 4.47657 10.4664C5.02538 10.6731 5.60652 10.7765 6.21999 10.7765" fill="black"/>
</svg>
