<svg width="25" height="22" viewBox="0 0 25 22" fill="none" xmlns="http://www.w3.org/2000/svg">
<path d="M12.6846 6.25C13.4703 3.1249 16.4378 1.5292 22.8989 1.50001C23.0021 1.49961 23.1045 1.51982 23.2 1.55947C23.2955 1.59911 23.3823 1.65741 23.4553 1.731C23.5283 1.8046 23.5862 1.89202 23.6255 1.98825C23.6649 2.08448 23.685 2.1876 23.6846 2.29167V16.5417C23.6846 16.7516 23.6018 16.953 23.4544 17.1015C23.3071 17.2499 23.1072 17.3333 22.8989 17.3333C16.6131 17.3333 14.1848 18.6104 12.6846 20.5M12.6846 6.25C11.8989 3.1249 8.93131 1.5292 2.47029 1.50001C2.367 1.49961 2.26465 1.51982 2.16915 1.55947C2.07365 1.59911 1.98688 1.65741 1.91384 1.731C1.8408 1.8046 1.78294 1.89202 1.74359 1.98825C1.70424 2.08448 1.68419 2.1876 1.68458 2.29167V16.4462C1.68458 16.935 1.98511 17.3333 2.47029 17.3333C8.756 17.3333 11.1932 18.6198 12.6846 20.5M12.6846 6.25V20.5" stroke="currentColor" stroke-width="2" stroke-linecap="round" stroke-linejoin="round"/>
</svg>
