<svg width="21" height="23" viewBox="0 0 21 23" fill="none" xmlns="http://www.w3.org/2000/svg">
<path d="M10.6025 11.5C13.364 11.5 15.6025 9.26142 15.6025 6.5C15.6025 3.73858 13.364 1.5 10.6025 1.5C7.84111 1.5 5.60254 3.73858 5.60254 6.5C5.60254 9.26142 7.84111 11.5 10.6025 11.5Z" stroke="currentColor" stroke-width="2"/>
<path d="M15.6029 13.5H15.9546C17.4675 13.5 18.7437 14.6266 18.9314 16.1279L19.3219 19.2519C19.4711 20.4456 18.5403 21.5 17.3373 21.5H3.86845C2.66546 21.5 1.73469 20.4456 1.8839 19.2519L2.2744 16.1279C2.46206 14.6266 3.73827 13.5 5.25124 13.5H5.60289" stroke="#6D6D6D" stroke-width="2" stroke-linecap="round" stroke-linejoin="round"/>
</svg>
