<svg xmlns="http://www.w3.org/2000/svg" width="15" height="10" viewBox="0 0 15 10" fill="none">
<path d="M5.42271 0.430941C5.36215 0.302094 5.26616 0.193147 5.14596 0.116836C5.02577 0.0405242 4.88634 0 4.74396 0C4.60159 0 4.46216 0.0405242 4.34197 0.116836C4.22177 0.193147 4.12578 0.302094 4.06521 0.430941L0.0652142 8.93094C-0.0148598 9.1102 -0.0214499 9.31371 0.0468592 9.49778C0.115168 9.68184 0.252929 9.83178 0.430562 9.9154C0.608195 9.99902 0.811535 10.0097 0.99692 9.94502C1.18231 9.88038 1.33495 9.74563 1.42209 9.56969L2.39646 7.50032H7.09146L8.06521 9.56969C8.14992 9.74971 8.30266 9.8887 8.48985 9.9561C8.67703 10.0235 8.88332 10.0138 9.06334 9.92907C9.24335 9.84436 9.38235 9.69162 9.44975 9.50443C9.51714 9.31725 9.50742 9.11096 9.42271 8.93094L5.42271 0.430941ZM3.10271 6.00032L4.74396 2.51157L6.38584 6.00032H3.10271ZM12.244 2.50032C11.3783 2.50032 10.6958 2.74157 10.2158 3.21782C10.1404 3.28582 10.0795 3.36844 10.0369 3.46068C9.99431 3.55292 9.97092 3.65285 9.96812 3.7544C9.96532 3.85596 9.98319 3.95702 10.0206 4.05146C10.0581 4.14591 10.1143 4.23176 10.1859 4.30381C10.2576 4.37585 10.3431 4.4326 10.4373 4.4706C10.5315 4.5086 10.6325 4.52706 10.7341 4.52487C10.8356 4.52267 10.9357 4.49986 11.0282 4.45782C11.1207 4.41578 11.2036 4.35539 11.2721 4.28032C11.4596 4.09282 11.7883 3.99782 12.244 3.99782C12.9315 3.99782 13.494 4.44657 13.494 4.99782V5.27219C13.1021 5.09142 12.6755 4.99863 12.244 5.00032C10.7277 5.00032 9.49396 6.12157 9.49396 7.50032C9.49396 8.87907 10.7277 10.0003 12.244 10.0003C12.7228 10.0015 13.1947 9.88608 13.619 9.66407C13.708 9.79827 13.8378 9.90026 13.9893 9.95494C14.1408 10.0096 14.3059 10.0141 14.4601 9.96768C14.6143 9.92127 14.7495 9.82646 14.8456 9.69727C14.9418 9.56808 14.9938 9.41136 14.994 9.25032V5.00032C14.994 3.62157 13.7602 2.50032 12.244 2.50032ZM12.244 8.50032C11.5565 8.50032 10.994 8.05157 10.994 7.50032C10.994 6.94907 11.5565 6.50032 12.244 6.50032C12.9315 6.50032 13.494 6.94907 13.494 7.50032C13.494 8.05157 12.9315 8.50032 12.244 8.50032Z" fill="white"/>
</svg>