<svg width="32" height="32" viewBox="0 0 32 32" fill="none" xmlns="http://www.w3.org/2000/svg">
<path fill-rule="evenodd" clip-rule="evenodd" d="M9.21051 7.36092C8.96802 7.12671 8.64325 6.99712 8.30614 7.00005C7.96903 7.00298 7.64656 7.1382 7.40818 7.37658C7.16979 7.61496 7.03458 7.93743 7.03165 8.27454C7.02872 8.61165 7.15831 8.93643 7.39251 9.17892L14.1978 15.9842L7.39251 22.7895C7.26971 22.9081 7.17177 23.05 7.10438 23.2068C7.037 23.3637 7.00153 23.5324 7.00005 23.7031C6.99857 23.8738 7.0311 24.0431 7.09574 24.2011C7.16039 24.3592 7.25586 24.5027 7.37658 24.6234C7.4973 24.7441 7.64085 24.8396 7.79886 24.9043C7.95687 24.9689 8.12617 25.0014 8.29689 25C8.4676 24.9985 8.63631 24.963 8.79318 24.8956C8.95004 24.8282 9.09191 24.7303 9.21051 24.6075L16.0158 17.8022L22.8211 24.6075C23.0636 24.8417 23.3883 24.9713 23.7255 24.9684C24.0626 24.9654 24.385 24.8302 24.6234 24.5918C24.8618 24.3534 24.997 24.031 25 23.6939C25.0029 23.3567 24.8733 23.032 24.6391 22.7895L17.8338 15.9842L24.6391 9.17892C24.8733 8.93643 25.0029 8.61165 25 8.27454C24.997 7.93743 24.8618 7.61496 24.6234 7.37658C24.385 7.1382 24.0626 7.00298 23.7255 7.00005C23.3883 6.99712 23.0636 7.12671 22.8211 7.36092L16.0158 14.1662L9.21051 7.36092Z" fill="black"/>
</svg>
