<svg width="221" height="221" viewBox="0 0 221 221" fill="none" xmlns="http://www.w3.org/2000/svg">
<rect width="221" height="221" rx="37" fill="#4190FF"/>
<path d="M62.829 178.313C62.9256 167.46 64.7869 156.404 68.3494 145.978C72.7655 150.311 79.6744 153.444 86.7094 153.758C93.7444 154.073 100.905 151.569 105.69 147.647C110.62 143.909 114.726 137.53 116.062 130.616C117.397 123.701 115.963 116.252 112.78 110.947C122.922 116.649 137.667 116.108 147.364 109.678C157.435 103.851 164.475 90.8841 163.877 79.2642C163.988 67.6295 156.41 54.9691 146.104 49.5687C136.146 43.5509 121.392 43.6282 111.497 49.75C65.9632 76.039 46.676 130.33 62.829 178.313Z" fill="white"/>
</svg>
