<svg width="264" height="291" viewBox="0 0 264 291" fill="currentColor" xmlns="http://www.w3.org/2000/svg">
<path d="M6.87751 291C-20.1992 179.321 34.2416 60.3895 142.579 9.95964C171.163 -4.23309 208.154 -3.14596 229.342 12.5098C251.614 26.758 266.267 56.8805 263.711 83.1636C262.763 109.553 244.249 137.477 220.285 148.66C192.087 163.588 155.026 163.551 133.358 148.573C139.516 161.197 141.289 178.323 136.894 193.691C132.499 209.059 121.936 222.669 110.029 230.145C98.4147 238.066 81.6999 242.31 65.829 240.208C49.9581 238.105 34.9311 229.656 25.7879 218.985C16.9796 238.21 8.64938 269.934 6.87751 291Z" />
</svg>
