<svg width="63" height="61" viewBox="0 0 63 61" fill="none" xmlns="http://www.w3.org/2000/svg">
<path d="M19.1244 0.931147C17.813 0.272124 15.1894 -0.387055 12.348 0.271967C10.0754 0.799292 8.19626 2.98112 7.54042 4.00634C6.88482 4.29921 5.31121 4.97319 4.2621 5.3247C2.95073 5.76405 0.76466 5.98393 0.327534 6.20361C-0.109417 6.42326 -0.109344 6.86202 0.327534 7.30126C0.76466 7.74061 1.85758 8.39995 2.73183 8.61962C3.60609 8.83926 5.13593 8.61963 6.01015 8.61962C6.70952 8.61962 7.75853 8.69336 8.1957 8.72997C8.04986 9.20609 7.58335 10.2888 6.88417 10.8159C6.01004 11.4748 4.26232 12.7932 4.04335 13.0132C3.82479 13.2329 3.60604 13.6724 3.8246 13.8921C4.04346 14.1115 4.91787 13.892 5.35488 13.6724C5.79231 13.4524 7.3216 12.3537 8.1957 11.6948C8.89511 11.1676 10.8185 10.1576 11.6928 9.71826C11.9114 9.79154 12.4223 10.351 13.4418 10.8159C14.6368 11.3608 16.2276 11.3613 16.7201 12.1343C17.2126 12.9073 16.9347 14.1438 16.7191 14.5513C16.5449 14.8802 15.407 16.3091 14.0961 18.0659C13.1093 19.179 11.0094 21.6159 10.5004 22.4595C9.99131 23.3032 8.7517 26.032 8.1957 27.2915C7.54071 28.3898 6.01045 33.8811 6.01015 35.4194C6.01015 36.9571 6.88457 42.8885 11.6928 47.9409C15.5394 51.9828 23.2029 54.4586 26.5541 55.1909V57.8267C26.3354 57.9732 25.7678 58.3101 25.2435 58.4858C24.5879 58.7055 23.0574 58.7056 22.4018 58.7056C21.8772 58.7056 21.4547 58.8521 21.309 58.9253C21.2361 59.1451 21.1342 59.6285 21.309 59.8042C21.5286 60.0234 23.2757 59.8043 24.1498 59.8042H25.8988C25.5345 60.0972 24.8939 60.7261 25.2435 60.9018C25.6809 61.1213 26.7738 60.9018 28.5219 60.9018C30.2701 60.9018 32.6734 60.9017 33.3295 60.6821C33.9851 60.4625 34.4228 60.2431 34.2045 59.3647C33.9859 58.486 33.9856 58.4855 33.767 57.1675C33.5923 56.1142 33.6942 55.9961 33.767 56.0688C37.2639 55.9224 44.8696 55.4544 47.3178 54.7515C50.3777 53.8728 53.2191 51.6756 54.3119 49.0395C55.4046 46.4038 55.6236 43.7681 55.8422 42.8892C56.0607 42.0105 58.2464 39.1545 59.3393 37.8364C60.4321 36.5184 62.6178 34.5414 62.8363 34.3218C63.0547 34.1022 63.0544 33.6631 62.8363 33.6626C62.6178 33.6626 62.6172 33.6626 62.1801 33.8823C61.7428 34.1019 60.2143 34.3213 60.2133 34.102C60.2133 33.8824 60.6505 33.882 61.5248 32.564C62.3988 31.2458 61.9613 28.3901 61.9613 28.1704C61.9613 27.9508 61.9616 27.5118 61.7436 27.5112C61.525 27.5112 61.3058 27.9508 61.0873 28.3901C60.8687 28.8295 59.7761 29.9278 59.9945 29.269C60.2131 28.61 59.9945 27.5112 59.9945 27.2915C59.9942 27.0712 59.7763 26.1941 59.558 25.9741C59.3394 25.7544 59.1215 26.1939 59.1215 26.4136C59.1217 26.6336 59.3393 27.2925 58.684 28.6099C58.0284 29.9277 55.1883 31.6844 54.7504 31.6851C54.3133 31.6851 53.0018 31.4653 51.2533 31.2456C49.5048 31.0259 43.1664 28.1702 38.5766 27.2915C33.9867 26.4128 28.9595 26.6332 26.7738 26.1938C25.0255 25.8423 23.569 24.5824 23.059 23.9966C23.059 23.6305 23.1021 22.8111 23.2768 22.4595C23.4953 22.0202 25.244 18.9449 25.8998 18.0659C26.5554 17.1873 27.2105 16.3083 27.4291 14.3315C27.6477 12.3545 26.9924 9.93725 25.681 7.30126C24.3697 4.66558 20.4361 1.59054 19.1244 0.931147ZM30.7758 56.1899C30.7016 56.2534 30.7757 56.4557 30.7758 56.7593C30.7758 57.1393 30.9994 57.3298 30.9994 57.8999C30.9994 58.4698 30.7757 58.4697 30.3285 58.6597C30.0457 58.7798 28.3162 59.2299 28.0922 58.8501C27.8685 58.47 28.0922 58.4699 28.3158 57.8999C28.4947 57.4438 28.3904 56.4429 28.3158 55.9995L30.7758 56.1899Z" fill="#979797"/>
</svg>
