<svg width="69" height="60" viewBox="0 0 69 60" fill="none" xmlns="http://www.w3.org/2000/svg">
<path d="M26.3286 6.34726C26.9661 2.25459 30.8013 -0.546012 34.894 0.0913967C38.9865 0.72906 41.7873 4.56323 41.1499 8.65585L38.9174 22.9859L51.9174 14.3961C55.3731 12.1127 60.0254 13.0626 62.309 16.5182C64.5927 19.9739 63.6427 24.6271 60.187 26.9107L47.9116 35.0211L61.8715 37.3473C65.9572 38.0278 68.7179 41.8915 68.0376 45.9771C67.357 50.0629 63.4934 52.8235 59.4077 52.1432L29.5317 47.1666L12.6157 58.3463C9.15994 60.6296 4.50763 59.6789 2.22407 56.2232C-0.0594201 52.7675 0.890473 48.1152 4.34614 45.8316L22.0288 34.1461C22.0436 33.9323 22.0665 33.7172 22.1 33.5016L26.3286 6.34726Z" fill="#91BFFF"/>
</svg>
