<svg width="41" height="35" viewBox="0 0 41 35" fill="none" xmlns="http://www.w3.org/2000/svg">
<path d="M10.4472 7.257C8.1559 -3.46021 2.48817 -0.0953465 1.57422 3.42141C1.55698 3.48776 1.50829 3.54001 1.44682 3.57036C0.882247 3.84917 0.447582 4.75179 0.192916 5.49102C0.127809 5.68001 0.360909 5.82191 0.523427 5.70553C1.95073 4.68346 2.8544 5.5728 3.19273 6.29642C3.22531 6.3661 3.20891 6.44641 3.16238 6.50765C2.57883 7.27563 2.11636 9.36691 1.95262 10.3571C-0.708175 21.133 6.25046 26.1413 10.1317 27.3283C10.1795 27.3429 10.2184 27.3739 10.2449 27.4164C10.7247 28.187 11.4825 28.9229 12.0271 29.3841C12.1691 29.5043 12.1544 29.914 12.1145 30.0958C12.0514 30.3839 12.095 30.78 12.1536 31.0656C12.1673 31.1322 12.1489 31.2016 12.1019 31.2508L9.71309 33.754C9.67843 33.7903 9.62764 33.8125 9.57754 33.8158C0.841141 34.3829 6.53271 34.6253 10.4844 34.6756C13.617 34.9279 12.5564 34.4327 11.4094 34.081C11.2622 34.0358 11.2146 33.849 11.3247 33.7414L13.9132 31.2124C13.9403 31.1859 13.9589 31.1522 13.9694 31.1158C14.2676 30.0827 15.9627 29.3641 16.8094 29.1237C16.8251 29.1193 16.8408 29.1169 16.8571 29.1168C17.4316 29.1133 17.8324 29.5442 17.9893 29.8032C18.0085 29.835 18.0361 29.8624 18.0516 29.8962C18.2107 30.2436 17.933 32.3279 17.7454 33.5086C17.7312 33.5978 17.6529 33.6661 17.5631 33.6755C10.2109 34.4439 14.1941 34.8783 17.1287 35C18.3924 35 19.2896 34.0472 19.6345 33.4921C19.67 33.435 19.7338 33.3962 19.8009 33.3911C24.4491 33.0377 21.4852 32.8906 19.3439 32.8598C19.299 32.8592 19.2551 32.8445 19.2251 32.8111C18.7843 32.3215 19.0323 30.5857 19.2428 29.6325C19.2616 29.5475 19.3342 29.4866 19.4206 29.4765C20.8854 29.3062 22.8604 28.2514 23.7432 27.696C23.7809 27.6724 23.8276 27.6623 23.8719 27.6664C51.6236 30.2273 39.5331 24.8372 29.9534 21.8C29.9115 21.7867 29.876 21.7606 29.8507 21.7248C25.4738 15.5354 15.8591 10.4752 11.4942 8.67282C11.4351 8.64838 11.3949 8.59814 11.3704 8.539C11.2278 8.19438 10.7618 7.6411 10.4972 7.35444C10.4724 7.32755 10.4549 7.29279 10.4472 7.257Z" fill="#979797"/>
</svg>
