<svg width="61" height="61" viewBox="0 0 61 61" fill="none" xmlns="http://www.w3.org/2000/svg">
<circle cx="30.5" cy="30.5" r="27.3421" fill="url(#paint0_linear_3118_7768)" stroke="#91BFFF" stroke-width="6.31579"/>
<mask id="mask0_3118_7768" style="mask-type:alpha" maskUnits="userSpaceOnUse" x="0" y="0" width="61" height="61">
<circle cx="30.5" cy="30.5" r="27.3421" fill="url(#paint1_linear_3118_7768)" stroke="#91BFFF" stroke-width="6.31579"/>
</mask>
<g mask="url(#mask0_3118_7768)">
<path d="M-3.6123 50.6069C2.63394 46.9937 6.84353 40.2533 6.87988 32.5269C6.87973 32.4935 6.87891 32.4597 6.87891 32.4263L6.87988 32.3296C6.8548 26.7897 4.683 21.7579 1.1543 18.021C4.69629 21.7711 6.87284 26.8248 6.88281 32.3882L6.88965 31.8843C6.90309 31.3541 6.93621 30.8278 6.98828 30.3081C6.99431 30.248 7.00128 30.1874 7.00781 30.1274C7.05877 29.6596 7.12486 29.1959 7.20605 28.7378C7.21679 28.6773 7.22898 28.6165 7.24023 28.5562C7.25863 28.4575 7.27711 28.3584 7.29688 28.2603C7.31248 28.1827 7.32924 28.105 7.3457 28.0278C7.36709 27.9275 7.38832 27.8268 7.41113 27.7271C7.42267 27.6766 7.43537 27.626 7.44727 27.5757C7.47287 27.4675 7.4991 27.359 7.52637 27.2515C7.54353 27.1838 7.56128 27.1158 7.5791 27.0483C7.60736 26.9414 7.63612 26.8343 7.66602 26.728C7.67977 26.6792 7.69489 26.6302 7.70898 26.5815C7.73963 26.4756 7.77047 26.3694 7.80273 26.2642C7.82821 26.1811 7.85438 26.0978 7.88086 26.0151C7.90338 25.9449 7.92598 25.8742 7.94922 25.8042C7.98078 25.7092 8.014 25.6144 8.04688 25.52C8.06875 25.4572 8.09083 25.3941 8.11328 25.3315C8.14643 25.2393 8.18045 25.1469 8.21484 25.0552C8.24194 24.9829 8.269 24.9102 8.29688 24.8384C8.32659 24.7618 8.35711 24.6851 8.3877 24.6089C8.41899 24.531 8.45119 24.453 8.4834 24.3755C8.52015 24.2871 8.55778 24.1986 8.5957 24.1108C8.623 24.0477 8.65081 23.9843 8.67871 23.9214C8.71194 23.8465 8.74522 23.7712 8.7793 23.6968C8.82177 23.604 8.8654 23.5114 8.90918 23.4194C8.93928 23.3562 8.97026 23.2929 9.00098 23.23C9.03229 23.1658 9.06376 23.1014 9.0957 23.0376C9.14713 22.935 9.19988 22.8326 9.25293 22.731C9.27362 22.6913 9.2945 22.6513 9.31543 22.6118C9.36415 22.5199 9.41285 22.4275 9.46289 22.3364C9.5145 22.2425 9.5681 22.1492 9.62109 22.0562C9.64159 22.0202 9.66192 21.9836 9.68262 21.9478C9.74533 21.8391 9.80943 21.7309 9.87402 21.6235C9.89804 21.5836 9.92201 21.5432 9.94629 21.5034C9.996 21.422 10.0469 21.3409 10.0977 21.2603C10.1366 21.1984 10.1753 21.1361 10.2148 21.0747C10.2651 20.9968 10.317 20.9195 10.3682 20.8423C10.415 20.7717 10.4612 20.7003 10.5088 20.6304C10.5462 20.5754 10.5851 20.5209 10.623 20.4663C10.6786 20.3864 10.7344 20.3062 10.791 20.2271C10.8548 20.1379 10.9202 20.0495 10.9854 19.9614C11.0121 19.9252 11.0384 19.8881 11.0654 19.8521C11.1379 19.7553 11.212 19.6594 11.2861 19.564C11.3148 19.527 11.3432 19.4894 11.3721 19.4526C11.5306 19.2513 11.6937 19.0532 11.8594 18.8579C11.9107 18.7974 11.9617 18.7362 12.0137 18.6763C12.0698 18.6116 12.1277 18.5479 12.1846 18.4839C12.2389 18.4228 12.2926 18.3607 12.3477 18.3003C12.6826 17.9324 13.0306 17.5761 13.3906 17.2329C13.5694 17.0624 13.7528 16.8961 13.9375 16.7319C14.1176 16.5719 14.2997 16.4131 14.4854 16.2593C14.5538 16.2025 14.6242 16.1472 14.6934 16.0913C14.7528 16.0433 14.8121 15.9942 14.8721 15.9468C14.9389 15.894 15.0077 15.8425 15.0752 15.7905C15.1405 15.7402 15.2056 15.6887 15.2715 15.6392C15.3407 15.5871 15.4115 15.5361 15.4814 15.4849C15.5429 15.4398 15.605 15.3945 15.667 15.3501C15.7383 15.2991 15.8109 15.2489 15.8828 15.1987C15.9473 15.1538 16.0121 15.1082 16.0771 15.064C16.1499 15.0145 16.2235 14.9651 16.2969 14.9165C16.361 14.8741 16.4257 14.8313 16.4902 14.7896C16.5645 14.7415 16.6399 14.6941 16.7148 14.647C16.7786 14.6069 16.843 14.5663 16.9072 14.5269C16.9921 14.4747 17.0784 14.4235 17.1641 14.3726C17.2192 14.3398 17.2746 14.3062 17.3301 14.2739C17.3454 14.265 17.3616 14.2564 17.377 14.2476C14.29 12.4618 10.7055 11.4381 6.88281 11.438C6.88165 11.438 6.88007 11.439 6.87891 11.439V11.438C6.82546 11.438 6.77209 11.4404 6.71875 11.4409C5.37799 11.4512 4.0675 11.5867 2.79785 11.8374C2.97228 11.803 3.14729 11.7698 3.32324 11.7397C3.13939 11.7711 2.95661 11.8062 2.77441 11.8423C2.71802 11.8535 2.6617 11.8648 2.60547 11.8765C2.19472 11.9614 1.78831 12.0579 1.38672 12.1665C1.36293 12.1729 1.33918 12.1795 1.31543 12.186C1.13171 12.2364 0.949252 12.29 0.767578 12.3452C0.735445 12.355 0.702967 12.3636 0.670898 12.3735C0.646497 12.3811 0.62202 12.3884 0.597656 12.396C0.574471 12.4033 0.551472 12.4111 0.52832 12.4185C0.373861 12.4674 0.220271 12.5184 0.0673828 12.5708C0.0559902 12.5747 0.0445871 12.5786 0.0332031 12.5825C-0.148718 12.6453 -0.329171 12.7112 -0.508789 12.7788C-0.545524 12.7926 -0.582504 12.8058 -0.619141 12.8198C-8.50706 15.838 -14.1092 23.4772 -14.1094 32.4263C-14.1092 40.1955 -9.88678 46.9783 -3.6123 50.6069ZM-2.87891 14.6938C-3.12035 14.5407 -3.36431 14.391 -3.6123 14.2476C-3.442 14.149 -3.26899 14.0543 -3.0957 13.9604C-3.26884 14.0542 -3.44117 14.1491 -3.61133 14.2476C-3.36359 14.3909 -3.12011 14.5408 -2.87891 14.6938ZM12.1758 46.3618C12.1484 46.331 12.121 46.3 12.0938 46.269C12.1289 46.309 12.1638 46.3494 12.1992 46.3892C12.1913 46.3803 12.1837 46.3707 12.1758 46.3618ZM17.3799 50.605C17.3786 50.6043 17.3764 50.6037 17.375 50.603V50.6069C17.3764 50.6062 17.3786 50.6057 17.3799 50.605ZM-1.77246 13.3022C-1.58572 13.2176 -1.39762 13.1354 -1.20801 13.0562C-1.39761 13.1355 -1.58573 13.2176 -1.77246 13.3022ZM-2.95215 13.8833C-2.78848 13.7963 -2.62422 13.7102 -2.45801 13.6274C-2.6242 13.7102 -2.78849 13.7963 -2.95215 13.8833Z" fill="#4190FF"/>
<path d="M28.4111 11.4443C31.471 11.5219 34.3683 12.2543 36.9678 13.5068C38.0383 14.0227 39.0584 14.6268 40.0186 15.3096C41.4905 16.3563 42.8212 17.5886 43.9775 18.9717L44.0918 18.9922C45.3493 19.2246 47.4403 19.6991 49.4199 20.2822C50.5513 20.6155 51.653 20.9857 52.5439 21.3701C52.9892 21.5623 53.3869 21.7598 53.7109 21.96C54.0312 22.1578 54.2962 22.3692 54.4609 22.5928L54.5215 22.6836C54.6498 22.8983 54.6876 23.1296 54.6445 23.3652C54.5971 23.6247 54.4544 23.8745 54.2646 24.1094C53.886 24.5778 53.2639 25.0522 52.5732 25.5059C51.8783 25.9623 51.0915 26.4131 50.3711 26.8291C49.6453 27.2483 48.9914 27.6286 48.5459 27.9541C48.4987 27.9886 48.4492 28.0211 48.4004 28.0557C48.699 29.4654 48.8574 30.9271 48.8574 32.4258C48.8573 43.8358 39.7519 53.1196 28.4111 53.4072L27.8691 53.4141L27.3271 53.4072C27.2913 53.4063 27.2555 53.4034 27.2197 53.4023C27.1731 53.4009 27.1266 53.3992 27.0801 53.3975C26.9904 53.3941 26.9009 53.3912 26.8115 53.3867C27.1619 53.4043 27.5145 53.415 27.8691 53.415H6.88086V53.4141C3.05824 53.4139 -0.52639 52.3912 -3.61328 50.6055C2.65946 46.9766 6.88045 40.1946 6.88086 32.4268V32.4258C6.88086 28.0792 8.20194 24.0411 10.4648 20.6914C14.2365 15.1083 20.6243 11.4375 27.8691 11.4375L28.4111 11.4443ZM25.7998 53.3125C26.1223 53.3442 26.4468 53.3688 26.7734 53.3857C26.702 53.3821 26.6308 53.3765 26.5596 53.3721C26.5107 53.369 26.4619 53.3657 26.4131 53.3623C26.2278 53.3496 26.0433 53.3349 25.8594 53.3174C25.8395 53.3155 25.8196 53.3144 25.7998 53.3125ZM25.7812 53.3105C25.7799 53.3104 25.7787 53.3097 25.7773 53.3096H25.7754C25.7774 53.3098 25.7793 53.3104 25.7812 53.3105ZM24.7041 53.1758C24.8514 53.1981 24.9992 53.219 25.1475 53.2383C25.1416 53.2375 25.1358 53.2361 25.1299 53.2354C25.1254 53.2348 25.1207 53.235 25.1162 53.2344L24.8057 53.1904C24.7718 53.1855 24.7379 53.1809 24.7041 53.1758ZM23.7783 53.0156C23.8614 53.0321 23.9449 53.0462 24.0283 53.0615C23.9931 53.055 23.958 53.0477 23.9229 53.041L23.7783 53.0146C23.7669 53.0124 23.7556 53.0091 23.7441 53.0068C23.7289 53.0038 23.7135 53.0011 23.6982 52.998L23.7783 53.0156ZM23.4785 52.9521C23.4677 52.9498 23.4571 52.9467 23.4463 52.9443C23.4106 52.9367 23.3745 52.9307 23.3389 52.9229L23.4785 52.9521ZM22.4707 52.7119L22.3945 52.6904C22.3809 52.6868 22.3672 52.6834 22.3535 52.6797C22.3926 52.6902 22.4316 52.7015 22.4707 52.7119ZM22.042 52.5938C22.0523 52.5967 22.0629 52.5986 22.0732 52.6016C21.9919 52.5782 21.911 52.5536 21.8301 52.5293L22.042 52.5938Z" fill="#91BFFF"/>
<circle cx="31.8299" cy="27.3118" r="8.51349" fill="#FEFEFE"/>
<ellipse cx="34.269" cy="28.7454" rx="6.3999" ry="6.42946" fill="#91BFFF"/>
<ellipse cx="31.446" cy="25.9223" rx="3.57685" ry="3.60641" fill="#FEFEFE"/>
</g>
<defs>
<linearGradient id="paint0_linear_3118_7768" x1="129.561" y1="-23.8634" x2="-26.8317" y2="11.3645" gradientUnits="userSpaceOnUse">
<stop stop-color="#CDDDF3"/>
<stop offset="0.837491" stop-color="#F3F3F3"/>
</linearGradient>
<linearGradient id="paint1_linear_3118_7768" x1="129.561" y1="-23.8634" x2="-26.8317" y2="11.3645" gradientUnits="userSpaceOnUse">
<stop stop-color="#CDDDF3"/>
<stop offset="0.837491" stop-color="#F3F3F3"/>
</linearGradient>
</defs>
</svg>
