<svg width="30" height="20" viewBox="0 0 30 20" fill="none" xmlns="http://www.w3.org/2000/svg">
<path d="M1.11864 1.08303C0.522034 1.19856 0.124294 1.51625 0 1.66065L0.894916 2.31047C1.13356 2.48375 1.49153 2.76775 1.64068 2.88809C1.5661 3.00842 1.38712 3.33574 1.2678 3.68231C1.14848 4.02888 1.21808 4.54874 1.2678 4.76534V5.12635C1.1435 5.36703 0.865085 6.06498 0.745763 6.93141C0.626441 7.79783 0.795481 8.59206 0.894916 8.88087L1.04407 9.24188C0.944633 9.72323 1.14848 11.1336 2.75932 12.9242C4.37017 14.7148 7.10961 15.9807 8.27797 16.3899L6.78644 17.3285L6.18983 17.4729L5.59322 17.6895C5.34464 17.7377 4.83254 17.8339 4.77288 17.8339C4.69831 17.8339 4.32543 17.9061 4.25085 17.9061H3.95254L3.50509 17.9783H3.20678L2.75932 18.1949C2.64 18.2527 2.56045 18.4838 2.61017 18.6282L3.35593 18.4116L4.25085 18.3394L4.77288 18.2671L5.29492 18.4116H5.51865L5.89153 18.2671H6.63729C6.75661 18.2671 6.88588 18.219 6.9356 18.1949L7.45763 17.9783L7.97966 17.8339H8.5017C8.56136 17.8339 8.87458 17.8821 9.02373 17.9061L9.54577 17.6895H9.99323L9.7695 17.9783L9.09831 18.3394L6.41356 18.917C6.31413 18.941 6.08543 19.0036 5.9661 19.0614C5.81695 19.1336 5.59322 19.3502 5.51865 19.4224C5.44407 19.4946 5.36949 19.639 5.29492 19.7834C5.23526 19.8989 5.27006 19.9759 5.29492 20L5.44407 19.7112C5.51865 19.5668 5.74238 19.4224 5.89153 19.3502C6.01085 19.2924 7.6565 19.1336 7.75594 19.1336H7.90509V19.278V19.4946L7.97966 19.639L8.05424 19.7112L8.12882 19.4224H8.20339L9.99323 18.8448L10.217 18.6282H10.3661H10.739H11.1119H11.4102L11.5593 18.4838H11.7085H12.0068L12.4542 18.4116L12.5288 18.2671L12.6034 18.0505L12.678 17.9061L12.9763 17.8339L13.2746 17.9061L13.6475 18.1949L13.722 18.1227L13.5729 17.8339C13.4983 17.7617 13.3193 17.6029 13.2 17.5451C13.0509 17.4729 12.8271 17.4729 12.678 17.4729C12.5587 17.4729 12.1808 17.6173 12.0068 17.6895H11.261L11.7085 17.2563C11.9073 17.2804 12.3648 17.3285 12.6034 17.3285C12.842 17.3285 13.3989 17.2804 13.6475 17.2563L13.9458 17.1841C14.0949 17.16 14.4081 17.0975 14.4678 17.0397C14.5275 16.9819 14.7413 16.7268 14.8407 16.6065C15.0147 16.5584 15.4075 16.4477 15.5864 16.3899C15.7654 16.3321 16.009 16.1733 16.1085 16.1011H16.4814C16.6305 16.1011 16.8542 16.0289 17.0034 15.9567C17.1227 15.8989 17.1526 15.7882 17.1526 15.7401L17.7492 15.5235L21.4034 15.5957H22.9695C23.243 15.5716 23.8048 15.5379 23.8644 15.5957C23.939 15.6679 25.8034 16.1011 26.2509 16.2455C26.6983 16.3899 29.6068 17.4729 29.6814 17.4729C29.7559 17.4729 29.9051 17.4729 29.9797 17.3285C30.0543 17.1841 29.9051 17.0397 29.8305 16.9675C29.756 16.8953 29.3085 16.6787 29.1594 16.6065L29.1593 16.6065C29.04 16.5487 28.165 16.1492 27.7424 15.9567L25.9526 15.3069L24.3119 14.7292L23.0441 14.296L21.478 13.7906L20.7322 13.574C20.5831 13.4537 20.2549 13.1841 20.1356 13.0686L19.6881 12.6354H20.4339C20.4936 12.6354 20.7074 12.6835 20.8068 12.7076C21.2045 12.8039 22.0298 12.9964 22.1492 12.9964C22.2983 12.9964 22.3729 12.9242 22.3729 12.852C22.3729 12.7798 22 12.5632 21.7763 12.4188C21.5973 12.3033 21.3537 12.1781 21.2542 12.13L22.2983 12.3466C22.3232 12.3466 22.3878 12.3321 22.4475 12.2744C22.522 12.2022 22.2983 12.13 22.3729 12.13C22.4326 12.13 22.4972 12.0818 22.522 12.0578C22.522 12.0337 22.5071 11.9711 22.4475 11.9134C22.3729 11.8412 21.1051 11.3357 20.9559 11.2635C20.8366 11.2058 19.8622 10.9025 19.3898 10.7581C18.7932 10.2527 17.5553 9.19856 17.3763 9.02527C17.1973 8.85199 15.8599 8.03851 15.2136 7.65343C15.0147 7.43682 14.5424 6.91697 14.2441 6.5704C13.8712 6.13718 13.2746 5.63177 12.8271 5.27076C12.4692 4.98195 11.9322 4.5728 11.7085 4.40433L10.2915 3.4657C9.84407 2.38267 8.87458 1.80505 8.05424 1.29964C7.2339 0.794224 6.63729 0.505415 6.11526 0.288809C5.59322 0.0722022 4.84746 0 4.1017 0C3.35593 0 2.98305 0.288809 2.68475 0.433213C2.4461 0.548737 2.23729 0.818291 2.16271 0.938628C2.06328 0.938628 1.71526 0.967509 1.11864 1.08303Z" fill="#979797"/>
</svg>
