<svg width="172" height="115" viewBox="0 0 172 115" fill="none" xmlns="http://www.w3.org/2000/svg">
<path d="M50.7974 50L54.7871 50.6666L44.8116 47.3333C42.8167 46.6667 36.8322 46 34.1724 45.3333C31.5125 44.6667 27.5228 42 26.1929 42C24.863 42 22.2044 41.3333 20.2083 40.6667C18.2123 40 16.2186 38.6667 15.5537 38C14.8887 37.3333 12.2289 36 9.56909 34C6.90928 32 2.92068 24 1.59077 18.6667C0.260864 13.3333 -0.404089 10 0.260864 9.33333C0.925817 8.66667 1.59077 11.3333 4.91554 14.6667C8.2403 18 22.2044 25.3333 34.1735 33.3333C43.7487 39.7333 61.2149 45.3333 68.751 47.3333C71.1892 47.1111 76.5975 46.6667 78.7253 46.6667C80.8532 46.6667 84.4883 47.5556 86.0398 48C92.6893 44.8889 106.52 38.4 108.648 37.3333C110.776 36.2667 114.854 35.1111 116.628 34.6667C118.179 33.7778 121.814 31.7333 123.942 30.6667C126.602 29.3333 139.236 24 141.896 22C144.556 20 149.875 14.6667 153.865 10C157.855 5.33333 158.52 0 159.185 0C159.85 0 159.85 2 159.85 2.66667C159.85 3.33333 159.185 7.33333 157.855 9.33333C156.525 11.3333 151.87 16 152.535 16C153.2 16 157.855 12 159.185 10.6667C160.515 9.33333 165.834 3.33333 166.499 3.33333C167.164 3.33333 167.164 4 167.164 4.66667C167.164 5.33333 163.839 9.33333 162.509 10.6667C161.18 12 157.19 15.3333 157.855 15.3333C158.52 15.3333 161.844 13.3333 163.174 12.6667C164.504 12 171.154 6.66667 171.819 6.66667C172.484 6.66667 171.154 8.66667 170.489 9.33333C169.824 10 169.824 10 169.824 10.6667C169.824 11.3333 167.829 13.3331 167.164 13.9999L167.164 14C166.499 14.6667 167.164 16 167.164 16.6667C167.164 17.2 165.391 18.6667 164.504 19.3333H165.834C166.499 19.3333 165.834 20 165.169 21.3333C164.637 22.4 162.731 24 161.844 24.6667H163.174C163.396 24.8889 163.706 25.4667 163.174 26C162.509 26.6667 155.86 34 153.865 35.3333C151.87 36.6667 149.875 37.3333 149.875 38C149.875 38.6667 149.21 40.6667 148.545 40.6667C147.88 40.6667 147.88 40.6667 147.88 41.3333C147.88 42 146.551 42.6667 145.886 42.6667C145.221 42.6667 145.886 44 145.221 44.6667C144.556 45.3333 142.561 45.3333 141.896 45.3333C141.231 45.3333 140.566 46.6667 140.566 47.3333C140.566 48 137.906 48.6667 137.241 48.6667C136.576 48.6667 136.576 50 136.576 50.6667C136.576 51.3333 135.246 52 133.916 52C132.587 52 131.922 52.6667 131.922 53.3333C131.922 54 130.592 54.6667 129.927 54.6667C129.262 54.6667 127.932 55.3333 127.932 56C127.932 56.6667 125.937 56.6667 125.937 57.3333C125.937 58 124.607 58 123.942 58C123.277 58 122.612 60 121.282 60C119.952 60 119.287 60.6667 117.293 62.6667C115.298 64.6667 122.612 70.6667 123.942 72C125.006 73.0667 132.808 78.6667 136.576 81.3333C137.241 81.7778 138.438 82.8 137.906 83.3333C137.241 84 136.576 84 134.581 84C132.587 84 120.617 79.3333 116.628 79.3333C112.638 79.3333 100.004 81.3333 94.6842 80.6667C89.3646 80 70.0809 73.3333 66.7562 71.3333C64.0964 69.7333 58.5551 65.3333 56.1169 63.3333C54.5654 62.4444 50.7973 60.5333 48.1375 60C44.8127 59.3333 35.5034 61.3333 34.1735 60.6667L32.8436 60H23.5343C23.3127 60 22.7364 59.8667 22.2044 59.3333C21.6724 58.8 22.8694 57.7778 23.5343 57.3333L30.1838 52C30.8488 50.8889 33.1096 48.5333 36.8334 48C40.5571 47.4666 47.6943 49.1111 50.7974 50Z" fill="#979797"/>
</svg>
