<svg width="40" height="39" viewBox="0 0 40 39" fill="none" xmlns="http://www.w3.org/2000/svg">
<path d="M29.7754 5.43262C31.2424 5.47744 32.561 5.93765 33.4932 6.61133L33.5195 6.62988L33.5469 6.64844C35.5675 7.9926 36.9793 10.9736 36.7422 13.5088L36.7373 13.5576L36.7354 13.6064C36.6473 16.1514 34.8705 18.9038 32.7061 19.9541L32.6699 19.9717L32.6348 19.9902C30.0006 21.4271 26.704 21.4452 24.8184 20.3037H24.8174C24.4111 20.0571 23.9853 20.0147 23.6602 20.0518C23.3648 20.0854 23.0079 20.2009 22.6924 20.4639C22.3214 20.768 22.1463 21.1554 22.0732 21.457C22.0025 21.749 21.984 22.1437 22.1426 22.5557L22.1416 22.5566C22.5802 23.7043 22.6467 25.2501 22.2158 26.6064C21.7859 27.9593 20.8612 29.1232 19.9043 29.7529L19.8799 29.7686L19.8564 29.7861C18.8743 30.4825 17.388 30.8836 15.9912 30.6914C14.5936 30.4989 13.2508 29.7067 12.4688 28.7578L10.7373 26.6572L10.1035 28.1162C11.2022 18.9706 16.6729 10.6173 25.2695 6.45703L25.2783 6.45312C26.6877 5.76139 28.3053 5.38771 29.7754 5.43262Z" fill="#FEFEFE" stroke="#FEFEFE" stroke-width="3.33333"/>
<path d="M6.69531 3.76221V13.8306" stroke="#FEFEFE" stroke-width="2.5" stroke-linecap="round"/>
<path d="M11.7344 8.79492L1.66602 8.79492" stroke="#FEFEFE" stroke-width="2.5" stroke-linecap="round"/>
</svg>


