<svg xmlns="http://www.w3.org/2000/svg" width="41" height="41" viewBox="0 0 41 41" fill="currentColor">
<path fill-rule="evenodd" clip-rule="evenodd" d="M6.52205 18.8243C6.09017 18.8318 5.67853 19.0086 5.37576 19.3167C5.073 19.6248 4.90335 20.0394 4.90335 20.4714C4.90335 20.9033 5.073 21.318 5.37576 21.626C5.67853 21.9341 6.09017 22.1109 6.52205 22.1184L18.853 22.1184L18.853 34.4494C18.8492 34.6681 18.889 34.8853 18.97 35.0885C19.0511 35.2917 19.1718 35.4766 19.3251 35.6327C19.4784 35.7887 19.6613 35.9126 19.863 35.9972C20.0647 36.0817 20.2813 36.1253 20.5 36.1253C20.7188 36.1253 20.9353 36.0817 21.137 35.9972C21.3388 35.9126 21.5216 35.7887 21.6749 35.6327C21.8283 35.4766 21.949 35.2917 22.03 35.0885C22.1111 34.8853 22.1509 34.6681 22.1471 34.4494L22.1471 22.1184L34.478 22.1184C34.9099 22.1109 35.3215 21.9341 35.6243 21.626C35.9271 21.318 36.0967 20.9033 36.0967 20.4714C36.0967 20.0394 35.9271 19.6248 35.6243 19.3167C35.3215 19.0086 34.9099 18.8318 34.478 18.8243L22.1471 18.8243L22.1471 6.49339C22.1396 6.06151 21.9628 5.64987 21.6547 5.34711C21.3466 5.04434 20.932 4.87469 20.5 4.87469C20.0681 4.87469 19.6534 5.04434 19.3454 5.34711C19.0373 5.64987 18.8605 6.06151 18.853 6.49339L18.853 18.8243L6.52205 18.8243Z" />
</svg>