<svg width="23" height="22" viewBox="0 0 23 22" fill="none" xmlns="http://www.w3.org/2000/svg">
<path d="M19.6148 1.60407L11.4204 4.23803L3.37936 1.61498C2.44931 1.31158 1.49414 2.0047 1.49414 2.98299V16.963C1.49414 17.2675 1.68575 17.5389 1.9726 17.6409L11.4204 21L21.0125 17.6395C21.301 17.5385 21.4941 17.2662 21.4941 16.9605V2.974C21.4941 1.99833 20.5437 1.3055 19.6148 1.60407Z" fill="#FEFEFE"/>
<path d="M11.4204 4.23803L19.6148 1.60407C20.5437 1.3055 21.4941 1.99833 21.4941 2.974V16.9605C21.4941 17.2662 21.301 17.5385 21.0125 17.6395L11.4204 21M11.4204 4.23803L3.37936 1.61498C2.44931 1.31158 1.49414 2.0047 1.49414 2.98299V16.963C1.49414 17.2674 1.68575 17.5389 1.9726 17.6409L11.4204 21M11.4204 4.23803V21" stroke="#FEFEFE" stroke-width="1.43896" stroke-linecap="round"/>
<path d="M11.4941 6.48926V17.8339" stroke="#91BFFF" stroke-width="1.72676" stroke-linecap="round"/>
</svg>
