<svg width="25" height="24" viewBox="0 0 25 24" fill="none" xmlns="http://www.w3.org/2000/svg">
<circle cx="12.3125" cy="12" r="9.6"  stroke-width="1.8"/>
<path d="M12.3135 2.40039C13.1692 2.40039 14.2061 3.14878 15.082 4.96582C15.9273 6.71937 16.4746 9.20547 16.4746 12C16.4746 14.7945 15.9273 17.2806 15.082 19.0342C14.2061 20.8512 13.1692 21.5996 12.3135 21.5996C11.4577 21.5996 10.4209 20.8512 9.54492 19.0342C8.69962 17.2806 8.15234 14.7945 8.15234 12C8.15234 9.20547 8.69962 6.71937 9.54492 4.96582C10.4209 3.14878 11.4577 2.40039 12.3135 2.40039Z"  stroke-width="1.8"/>
<path d="M2.71484 12.001C2.71484 11.1452 3.46323 10.1084 5.28027 9.23242C7.03382 8.38712 9.51993 7.83984 12.3145 7.83984C15.109 7.83984 17.5951 8.38712 19.3486 9.23242C21.1657 10.1084 21.9141 11.1452 21.9141 12.001C21.9141 12.8567 21.1657 13.8936 19.3486 14.7695C17.5951 15.6148 15.109 16.1621 12.3145 16.1621C9.51993 16.1621 7.03382 15.6148 5.28027 14.7695C3.46323 13.8936 2.71484 12.8567 2.71484 12.001Z" stroke-width="1.8"/>
</svg>
