<svg xmlns="http://www.w3.org/2000/svg" width="15" height="11" viewBox="0 0 15 11" fill="none">
  <path d="M5.42271 0.930697C5.36215 0.80185 5.26616 0.692903 5.14596 0.616592C5.02577 0.54028 4.88634 0.499756 4.74396 0.499756C4.60159 0.499756 4.46216 0.54028 4.34197 0.616592C4.22177 0.692903 4.12578 0.80185 4.06521 0.930697L0.0652142 9.4307C-0.0148598 9.60996 -0.0214499 9.81347 0.0468592 9.99753C0.115168 10.1816 0.252929 10.3315 0.430562 10.4152C0.608195 10.4988 0.811535 10.5094 0.99692 10.4448C1.18231 10.3801 1.33495 10.2454 1.42209 10.0694L2.39646 8.00007H7.09146L8.06521 10.0694C8.14992 10.2495 8.30266 10.3885 8.48985 10.4559C8.67703 10.5232 8.88332 10.5135 9.06334 10.4288C9.24335 10.3441 9.38235 10.1914 9.44975 10.0042C9.51714 9.817 9.50742 9.61071 9.42271 9.4307L5.42271 0.930697ZM3.10271 6.50007L4.74396 3.01132L6.38584 6.50007H3.10271ZM12.244 3.00007C11.3783 3.00007 10.6958 3.24132 10.2158 3.71757C10.1404 3.78557 10.0795 3.8682 10.0369 3.96044C9.99431 4.05267 9.97091 4.1526 9.96812 4.25416C9.96532 4.35571 9.98319 4.45678 10.0206 4.55122C10.0581 4.64566 10.1143 4.73151 10.1859 4.80356C10.2576 4.87561 10.3431 4.93236 10.4373 4.97036C10.5315 5.00836 10.6325 5.02682 10.7341 5.02462C10.8356 5.02243 10.9357 4.99962 11.0282 4.95758C11.1207 4.91554 11.2036 4.85515 11.2721 4.78007C11.4596 4.59257 11.7883 4.49757 12.244 4.49757C12.9315 4.49757 13.494 4.94632 13.494 5.49757V5.77195C13.1021 5.59118 12.6755 5.49838 12.244 5.50007C10.7277 5.50007 9.49396 6.62132 9.49396 8.00007C9.49396 9.37882 10.7277 10.5001 12.244 10.5001C12.7228 10.5012 13.1947 10.3858 13.619 10.1638C13.708 10.298 13.8378 10.4 13.9893 10.4547C14.1408 10.5094 14.3059 10.5138 14.4601 10.4674C14.6143 10.421 14.7495 10.3262 14.8456 10.197C14.9418 10.0678 14.9938 9.91112 14.994 9.75007V5.50007C14.994 4.12132 13.7602 3.00007 12.244 3.00007ZM12.244 9.00007C11.5565 9.00007 10.994 8.55132 10.994 8.00007C10.994 7.44882 11.5565 7.00007 12.244 7.00007C12.9315 7.00007 13.494 7.44882 13.494 8.00007C13.494 8.55132 12.9315 9.00007 12.244 9.00007Z" fill="currentColor"/>
</svg>