<svg width="11" height="11" viewBox="0 0 11 11" fill="none" xmlns="http://www.w3.org/2000/svg">
<path fill-rule="evenodd" clip-rule="evenodd" d="M2.01127 0.303048C1.87655 0.172935 1.69612 0.100939 1.50884 0.102566C1.32155 0.104194 1.1424 0.179314 1.00997 0.311749C0.877533 0.444183 0.802412 0.623335 0.800785 0.810618C0.799157 0.997901 0.871153 1.17833 1.00127 1.31305L4.78198 5.09376L1.00127 8.87448C0.933045 8.94037 0.878629 9.01918 0.841194 9.10633C0.803759 9.19347 0.784054 9.2872 0.78323 9.38205C0.782406 9.47689 0.800479 9.57095 0.836394 9.65873C0.872308 9.74651 0.925346 9.82626 0.992413 9.89333C1.05948 9.96039 1.13923 10.0134 1.22701 10.0493C1.3148 10.0853 1.40885 10.1033 1.5037 10.1025C1.59854 10.1017 1.69227 10.082 1.77941 10.0445C1.86656 10.0071 1.94538 9.9527 2.01127 9.88448L5.79198 6.10376L9.57269 9.88448C9.70741 10.0146 9.88784 10.0866 10.0751 10.085C10.2624 10.0833 10.4416 10.0082 10.574 9.87578C10.7064 9.74334 10.7815 9.56419 10.7832 9.3769C10.7848 9.18962 10.7128 9.00919 10.5827 8.87448L6.80198 5.09376L10.5827 1.31305C10.7128 1.17833 10.7848 0.997901 10.7832 0.810618C10.7815 0.623335 10.7064 0.444183 10.574 0.311749C10.4416 0.179314 10.2624 0.104194 10.0751 0.102566C9.88784 0.100939 9.70741 0.172935 9.57269 0.303048L5.79198 4.08376L2.01127 0.303048Z" fill="#979797"/>
</svg>
